<svg width="60" height="60" viewBox="0 0 60 60" fill="none" xmlns="http://www.w3.org/2000/svg">
<path fill-rule="evenodd" clip-rule="evenodd" d="M60.5 16.4286C57.345 16.4286 54.7857 13.8686 54.7857 10.7157V5.71429H49.7843C46.6286 5.71429 44.0714 3.15714 44.0714 0H16.9286C16.9286 3.155 14.3686 5.71429 11.2157 5.71429H6.21429V10.7157C6.21429 13.8714 3.65714 16.4286 0.5 16.4286V43.5714C3.655 43.5714 6.21429 46.1314 6.21429 49.2843V54.2857H11.2157C14.3714 54.2857 16.9286 56.8429 16.9286 60H44.0714C44.0714 56.845 46.6314 54.2857 49.7843 54.2857H54.7857V49.2843C54.7857 46.1286 57.3429 43.5714 60.5 43.5714V16.4286ZM42.6786 59.2857H31.2143V47.8214C34.8243 47.4643 37.6429 44.4186 37.6429 40.7157V37.1429H41.2157C44.9157 37.1429 47.9629 34.3236 48.3229 30.7143H59.7857V42.1786C56.1757 42.5357 53.3571 45.5814 53.3571 49.2843V52.8571H49.7843C46.0843 52.8571 43.0371 55.6764 42.6771 59.2857H42.6786ZM18.3214 59.2857H29.7857V47.8214C26.1764 47.4629 23.3571 44.4157 23.3571 40.7157V37.1429H19.7843C16.0814 37.1429 13.0364 34.3243 12.6771 30.7143H1.21429V42.1786C4.82357 42.5371 7.64286 45.5843 7.64286 49.2843V52.8571H11.2157C14.9186 52.8571 17.9636 55.6757 18.3229 59.2857H18.3214ZM18.3214 0.714286H29.7857V12.1786C26.1757 12.5357 23.3571 15.5814 23.3571 19.2843V22.8571H19.7843C16.0843 22.8571 13.0371 25.6764 12.6771 29.2857H1.21429V17.8214C4.82429 17.4643 7.64286 14.4186 7.64286 10.7157V7.14286H11.2157C14.9157 7.14286 17.9629 4.32357 18.3229 0.714286H18.3214ZM42.6786 0.714286H31.2143V12.1786C34.8236 12.5371 37.6429 15.5843 37.6429 19.2843V22.8571H41.2157C44.9186 22.8571 47.9636 25.6757 48.3229 29.2857H59.7857V17.8214C56.1764 17.4629 53.3571 14.4157 53.3571 10.7157V7.14286H49.7843C46.0814 7.14286 43.0364 4.32429 42.6771 0.714286H42.6786ZM36.2143 35.7143V40.7157C36.2143 43.8714 33.6571 46.4286 30.5 46.4286C27.345 46.4286 24.7857 43.8686 24.7857 40.7157V35.7143H19.7843C16.6286 35.7143 14.0714 33.1571 14.0714 30C14.0714 26.845 16.6314 24.2857 19.7843 24.2857H24.7857V19.2843C24.7857 16.1286 27.3429 13.5714 30.5 13.5714C33.655 13.5714 36.2143 16.1314 36.2143 19.2843V24.2857H41.2157C44.3714 24.2857 46.9286 26.8429 46.9286 30C46.9286 33.155 44.3686 35.7143 41.2157 35.7143H36.2143Z" fill="#9C9C9C" fill-opacity="0.05"/>
</svg>
